# xmcd
#
# Track frame offsets: 
#        150
#        44295
#        93305
#        143025
#        206040
#        244995
#
# Disc length: 3953 seconds
#
# Revision: 7
# Processed by: cddbd v1.5.2PL0 Copyright (c) Steve Scherf et al.
# Submitted via: ExactAudioCopy v0.99pb4
#
DISCID=510f6f06
DTITLE=Rachmaninoff - Rachmaninoff plays Rachmaninoff - Concertos Nos.
DTITLE=2 and 3
DYEAR=1939
DGENRE=Classical
TTITLE0=Concerto No.2 in C minor Op.18 -I- Moderato - Allegro
TTITLE1=Concerto No.2 in C minor Op.18 -II- Adagio sostenuto
TTITLE2=Concerto No.2 in C minor Op.18 -III- Allegro scherzando
TTITLE3=Concerto No.3 in D minor Op.30 -I- Allegro ma non tanto
TTITLE4=Concerto No.3 in D minor Op.30 -II- Intermezzo - Adagio
TTITLE5=Concerto No.3 in D minor Op.30 -III- Finale: Alla breve
EXTD=YEAR: 1939
EXTT0=
EXTT1=
EXTT2=
EXTT3=
EXTT4=
EXTT5=
PLAYORDER=
